<svg width="912" height="912" viewBox="0 0 912 912" fill="none" xmlns="http://www.w3.org/2000/svg">
<circle cx="455.999" cy="456" r="345" transform="rotate(-22.0196 455.999 456)" fill="white" stroke="black" stroke-width="10"/>
<mask id="path-2-inside-1_35_21" fill="white">
<path d="M131.531 587.223C114.298 544.613 105.627 499.026 106.012 453.065C106.398 407.104 115.832 361.669 133.777 319.354C151.721 277.039 177.825 238.673 210.596 206.446C243.368 174.219 282.167 148.763 324.777 131.531C367.387 114.298 412.974 105.627 458.935 106.012C504.896 106.398 550.331 115.832 592.646 133.777C634.961 151.721 673.327 177.824 705.554 210.596C737.781 243.368 763.237 282.167 780.47 324.777L528.75 426.578C524.886 417.025 519.178 408.326 511.953 400.978C504.727 393.63 496.125 387.777 486.638 383.754C477.15 379.731 466.963 377.615 456.658 377.529C446.353 377.442 436.132 379.387 426.578 383.25C417.025 387.114 408.326 392.822 400.978 400.047C393.63 407.273 387.777 415.875 383.754 425.363C379.731 434.85 377.615 445.037 377.529 455.342C377.442 465.647 379.387 475.868 383.25 485.422L131.531 587.223Z"/>
</mask>
<path d="M131.531 587.223C114.298 544.613 105.627 499.026 106.012 453.065C106.398 407.104 115.832 361.669 133.777 319.354C151.721 277.039 177.825 238.673 210.596 206.446C243.368 174.219 282.167 148.763 324.777 131.531C367.387 114.298 412.974 105.627 458.935 106.012C504.896 106.398 550.331 115.832 592.646 133.777C634.961 151.721 673.327 177.824 705.554 210.596C737.781 243.368 763.237 282.167 780.47 324.777L528.75 426.578C524.886 417.025 519.178 408.326 511.953 400.978C504.727 393.63 496.125 387.777 486.638 383.754C477.15 379.731 466.963 377.615 456.658 377.529C446.353 377.442 436.132 379.387 426.578 383.25C417.025 387.114 408.326 392.822 400.978 400.047C393.63 407.273 387.777 415.875 383.754 425.363C379.731 434.85 377.615 445.037 377.529 455.342C377.442 465.647 379.387 475.868 383.25 485.422L131.531 587.223Z" fill="#D9D9D9"/>
<path d="M131.531 587.223C114.298 544.613 105.627 499.026 106.012 453.065C106.398 407.104 115.832 361.669 133.777 319.354C151.721 277.039 177.825 238.673 210.596 206.446C243.368 174.219 282.167 148.763 324.777 131.531C367.387 114.298 412.974 105.627 458.935 106.012C504.896 106.398 550.331 115.832 592.646 133.777C634.961 151.721 673.327 177.824 705.554 210.596C737.781 243.368 763.237 282.167 780.47 324.777L528.75 426.578C524.886 417.025 519.178 408.326 511.953 400.978C504.727 393.63 496.125 387.777 486.638 383.754C477.15 379.731 466.963 377.615 456.658 377.529C446.353 377.442 436.132 379.387 426.578 383.25C417.025 387.114 408.326 392.822 400.978 400.047C393.63 407.273 387.777 415.875 383.754 425.363C379.731 434.85 377.615 445.037 377.529 455.342C377.442 465.647 379.387 475.868 383.25 485.422L131.531 587.223Z" fill="url(#paint0_linear_35_21)"/>
<path d="M131.531 587.223C114.298 544.613 105.627 499.026 106.012 453.065C106.398 407.104 115.832 361.669 133.777 319.354C151.721 277.039 177.825 238.673 210.596 206.446C243.368 174.219 282.167 148.763 324.777 131.531C367.387 114.298 412.974 105.627 458.935 106.012C504.896 106.398 550.331 115.832 592.646 133.777C634.961 151.721 673.327 177.824 705.554 210.596C737.781 243.368 763.237 282.167 780.47 324.777L528.75 426.578C524.886 417.025 519.178 408.326 511.953 400.978C504.727 393.63 496.125 387.777 486.638 383.754C477.15 379.731 466.963 377.615 456.658 377.529C446.353 377.442 436.132 379.387 426.578 383.25C417.025 387.114 408.326 392.822 400.978 400.047C393.63 407.273 387.777 415.875 383.754 425.363C379.731 434.85 377.615 445.037 377.529 455.342C377.442 465.647 379.387 475.868 383.25 485.422L131.531 587.223Z" stroke="black" stroke-width="20" mask="url(#path-2-inside-1_35_21)"/>
<circle cx="454.5" cy="452.292" r="83" transform="rotate(-22.0196 454.5 452.292)" fill="white" stroke="black" stroke-width="10"/>
<defs>
<linearGradient id="paint0_linear_35_21" x1="780.47" y1="324.777" x2="131.531" y2="587.223" gradientUnits="userSpaceOnUse">
<stop stop-color="#36B1C7"/>
<stop offset="0.994792" stop-color="#960B33"/>
</linearGradient>
</defs>
</svg>
